<svg width="902" height="535" viewBox="0 0 902 535" fill="none" xmlns="http://www.w3.org/2000/svg">
<g clip-path="url(#clip0_135_260)">
<path d="M654.209 257.204C655.515 256.318 656.999 255.729 658.557 255.478C660.115 255.228 661.709 255.322 663.227 255.755C664.745 256.187 666.149 256.947 667.341 257.981C668.534 259.014 669.485 260.297 670.128 261.738L694.786 261.087L698.836 275.976L664.001 276.407C661.509 277.327 658.766 277.3 656.291 276.332C653.817 275.364 651.784 273.522 650.577 271.155C649.37 268.788 649.073 266.061 649.742 263.489C650.412 260.918 652.001 258.682 654.209 257.204Z" fill="#FFB8B8"/>
<path d="M681.865 281.004C680.328 279.572 679.394 277.608 679.253 275.511L678.267 260.711C678.176 259.356 678.42 258 678.979 256.763C679.539 255.525 680.395 254.446 681.473 253.62L721.227 223.075L744.335 195.022C746.678 192.187 750.011 190.35 753.659 189.885C757.307 189.42 760.995 190.361 763.973 192.517C765.523 193.643 766.834 195.065 767.829 196.702C768.824 198.338 769.484 200.156 769.77 202.05C770.056 203.944 769.963 205.876 769.495 207.733C769.028 209.591 768.196 211.337 767.048 212.87L740.131 248.808L720.968 269.103C714.876 275.524 706.898 279.84 698.189 281.423L688.944 283.084C687.801 283.289 686.629 283.25 685.502 282.971C684.376 282.692 683.32 282.179 682.406 281.464C682.218 281.318 682.038 281.165 681.865 281.004Z" fill="#536E96"/>
<path d="M864.024 512.708L851.257 515.897L832.881 468.164L851.725 463.458L864.024 512.708Z" fill="#FFB8B8"/>
<path d="M841.225 514.527L865.849 508.377L869.721 523.882L829.593 533.904C829.085 531.868 828.982 529.751 829.292 527.675C829.601 525.6 830.316 523.605 831.396 521.806C832.477 520.007 833.901 518.438 835.587 517.189C837.273 515.94 839.189 515.035 841.225 514.527Z" fill="#2F2E41"/>
<path d="M748.79 521.683L735.63 521.682L729.372 470.918L748.794 470.919L748.79 521.683Z" fill="#FFB8B8"/>
<path d="M726.23 517.921H751.61V533.902H710.25C710.25 531.803 710.663 529.725 711.466 527.786C712.269 525.847 713.446 524.085 714.93 522.601C716.414 521.117 718.176 519.94 720.115 519.137C722.053 518.334 724.131 517.921 726.23 517.921Z" fill="#2F2E41"/>
<path d="M743.084 155.274C758.699 155.274 771.357 142.615 771.357 126.999C771.357 111.384 758.699 98.7244 743.084 98.7244C727.469 98.7244 714.811 111.384 714.811 126.999C714.811 142.615 727.469 155.274 743.084 155.274Z" fill="#FFB8B8"/>
<path d="M743.03 128.002C743.082 124.22 749.591 123.746 751.618 126.969C753.645 130.193 752.345 134.398 750.558 137.754C748.699 141.249 746.287 144.777 746.659 148.746C746.787 149.747 747.166 150.701 747.761 151.516C748.356 152.332 749.148 152.984 750.063 153.411C750.978 153.838 751.986 154.027 752.994 153.96C754.001 153.893 754.975 153.572 755.825 153.026C765.06 147.34 772.857 139.062 776.306 128.974C779.934 118.364 778.121 105.716 770.275 97.5638C762.428 89.412 748.362 87.1061 739.049 93.623L723.152 82.7952C722.778 82.5316 722.331 82.3904 721.873 82.3907C721.416 82.3911 720.969 82.5332 720.595 82.7974C720.221 83.0616 719.938 83.4351 719.785 83.8665C719.632 84.298 719.616 84.7663 719.739 85.2071L722.064 92.7622L714.035 90.7421C713.693 90.6471 713.33 90.6577 712.993 90.7724C712.657 90.8871 712.363 91.1007 712.151 91.3851C711.938 91.6695 711.815 92.0116 711.8 92.3665C711.785 92.7215 711.877 93.0728 712.064 93.3746L714.821 97.6573C711.145 94.6328 704.794 98.0797 704.268 102.744C703.741 107.409 707.532 111.709 711.99 113.466C716.448 115.224 721.426 115.024 726.228 114.796C725.71 117.12 725.939 119.547 726.881 121.733C727.823 123.919 729.43 125.752 731.475 126.97C735.628 129.377 741.362 128.81 743.03 128.002Z" fill="#2F2E41"/>
<path d="M749.155 500.245C749.101 500.245 749.046 500.245 748.991 500.243L728.664 499.609C727.974 499.587 727.295 499.428 726.668 499.14C726.04 498.853 725.476 498.442 725.009 497.934C724.543 497.425 724.182 496.828 723.949 496.178C723.716 495.528 723.616 494.838 723.653 494.149L733.82 307.46L811.936 329.614L863.16 489.383C863.405 490.149 863.469 490.961 863.346 491.756C863.224 492.551 862.918 493.306 862.452 493.962C861.987 494.618 861.375 495.157 860.666 495.536C859.957 495.915 859.169 496.123 858.365 496.144L834.952 496.766C833.895 496.787 832.856 496.487 831.973 495.906C831.09 495.325 830.404 494.49 830.005 493.51L777.316 361.703C777.176 361.351 776.922 361.054 776.596 360.86C776.27 360.666 775.889 360.585 775.512 360.629C775.135 360.673 774.783 360.841 774.511 361.105C774.238 361.369 774.06 361.716 774.005 362.092L754.277 495.821C754.096 497.05 753.479 498.173 752.539 498.986C751.598 499.798 750.398 500.245 749.155 500.245Z" fill="#2F2E41"/>
<path d="M808.145 354.297C802.596 354.293 797.19 352.536 792.698 349.278L767.563 331.132C762.047 327.159 755.658 324.569 748.933 323.581L736.838 321.818C734.981 321.551 733.29 320.604 732.093 319.159C730.896 317.715 730.278 315.877 730.361 314.003L735.181 198.595L732.32 182.143C732.089 180.801 732.247 179.422 732.776 178.168C733.305 176.914 734.183 175.838 735.305 175.068L757.708 159.739C759.473 158.533 761.597 157.966 763.728 158.133L764.547 158.198C766.841 158.377 769.02 159.274 770.777 160.76C772.533 162.247 773.778 164.248 774.334 166.481L775.193 169.917L790.098 196.416C794.503 204.247 797.813 212.645 799.938 221.376L814.067 279.442C815.295 284.494 816.145 289.63 816.61 294.808L821.29 347.026C821.396 348.156 821.133 349.29 820.539 350.257C819.946 351.225 819.054 351.973 817.999 352.39C814.865 353.647 811.521 354.295 808.145 354.297Z" fill="#536E96"/>
<path d="M761.256 312.476C760.948 310.929 760.984 309.332 761.36 307.799C761.736 306.267 762.443 304.835 763.432 303.605C764.422 302.376 765.668 301.378 767.085 300.682C768.501 299.986 770.053 299.61 771.63 299.579L780.632 276.612L795.922 278.678L782.755 310.933C782.631 313.587 781.539 316.104 779.684 318.006C777.829 319.909 775.341 321.064 772.691 321.255C770.041 321.445 767.413 320.656 765.306 319.038C763.198 317.42 761.757 315.086 761.256 312.476Z" fill="#FFB8B8"/>
<path d="M793.944 296.268C792.027 297.126 789.854 297.222 787.869 296.535L773.853 291.681C772.57 291.238 771.416 290.484 770.494 289.488C769.572 288.491 768.912 287.281 768.57 285.967L755.917 237.455L739.077 205.245C737.378 201.984 736.984 198.198 737.976 194.657C738.968 191.116 741.271 188.085 744.417 186.181C746.057 185.191 747.877 184.538 749.772 184.258C751.667 183.979 753.598 184.079 755.454 184.553C757.309 185.027 759.052 185.865 760.581 187.019C762.11 188.172 763.394 189.619 764.359 191.273L786.978 230.061L798.209 255.615C801.751 263.727 802.619 272.756 800.687 281.394L798.616 290.558C798.36 291.69 797.868 292.755 797.173 293.684C796.477 294.613 795.593 295.385 794.579 295.95C794.371 296.065 794.16 296.171 793.944 296.268Z" fill="#536E96"/>
<path d="M644.63 392.451H20.3226C15.2869 392.445 10.4591 390.442 6.89828 386.881C3.33749 383.32 1.33455 378.492 1.32886 373.456V21.4144H663.623V373.456C663.618 378.492 661.615 383.32 658.054 386.881C654.493 390.442 649.665 392.445 644.63 392.451Z" fill="#E6E6E6"/>
<path d="M619.785 356.092H45.1672C42.573 356.089 40.0859 355.057 38.2516 353.222C36.4173 351.388 35.3854 348.901 35.3825 346.306V67.558C35.3854 64.9637 36.4173 62.4765 38.2516 60.642C40.0859 58.8075 42.573 57.7756 45.1672 57.7727H619.785C622.379 57.7756 624.866 58.8075 626.7 60.642C628.535 62.4764 629.567 64.9637 629.569 67.558V346.306C629.567 348.901 628.535 351.388 626.7 353.222C624.866 355.057 622.379 356.089 619.785 356.092Z" fill="white"/>
<path d="M664.953 34.2459H0V18.9951C0.00568529 13.959 2.00863 9.13084 5.56942 5.56981C9.13021 2.00877 13.958 0.00568569 18.9937 0H645.959C650.995 0.00568873 655.822 2.00878 659.383 5.56981C662.944 9.13084 664.947 13.959 664.953 18.9951V34.2459Z" fill="#5B7399"/>
<path d="M191.377 112.481H89.098C86.5035 112.482 84.0157 113.514 82.1811 115.349C80.3465 117.183 79.3151 119.671 79.3134 122.266V189.497C79.3151 192.092 80.3465 194.58 82.1811 196.414C84.0157 198.249 86.5035 199.281 89.098 199.282H191.377C193.97 199.279 196.457 198.247 198.291 196.412C200.125 194.578 201.158 192.091 201.161 189.497V122.266C201.158 119.672 200.125 117.185 198.291 115.351C196.457 113.516 193.97 112.484 191.377 112.481Z" fill="#E6E6E6"/>
<path d="M383.616 112.481H281.338C278.743 112.482 276.255 113.514 274.421 115.349C272.586 117.183 271.555 119.671 271.553 122.266V189.497C271.555 192.092 272.586 194.58 274.421 196.414C276.255 198.249 278.743 199.281 281.338 199.282H383.616C386.21 199.279 388.697 198.247 390.531 196.412C392.365 194.578 393.397 192.091 393.401 189.497V122.266C393.397 119.672 392.365 117.185 390.531 115.351C388.697 113.516 386.21 112.484 383.616 112.481Z" fill="#E6E6E6"/>
<path d="M575.856 112.481H473.577C470.983 112.482 468.495 113.514 466.661 115.349C464.826 117.183 463.794 119.671 463.793 122.266V189.497C463.794 192.092 464.826 194.58 466.661 196.414C468.495 198.249 470.983 199.281 473.577 199.282H575.856C578.45 199.279 580.936 198.247 582.771 196.412C584.605 194.578 585.637 192.091 585.641 189.497V122.266C585.637 119.672 584.605 117.185 582.771 115.351C580.936 113.516 578.45 112.484 575.856 112.481Z" fill="#E6E6E6"/>
<path d="M176.907 231.056H103.568C102.126 231.056 100.742 231.629 99.722 232.649C98.702 233.669 98.129 235.053 98.129 236.495C98.129 237.938 98.702 239.322 99.722 240.342C100.742 241.362 102.126 241.935 103.568 241.935H176.907C178.349 241.935 179.733 241.362 180.753 240.342C181.773 239.322 182.346 237.938 182.346 236.495C182.346 235.053 181.773 233.669 180.753 232.649C179.733 231.629 178.349 231.056 176.907 231.056Z" fill="#E6E6E6"/>
<path d="M176.907 260.78H103.568C102.323 260.778 101.115 261.203 100.146 261.985C99.177 262.766 98.5056 263.857 98.2441 265.074C97.9825 266.291 98.1467 267.561 98.7092 268.672C99.2717 269.783 100.198 270.666 101.334 271.176C102.036 271.495 102.797 271.66 103.568 271.659H176.907C178.35 271.659 179.733 271.086 180.753 270.066C181.773 269.046 182.346 267.662 182.346 266.22C182.346 264.777 181.773 263.394 180.753 262.373C179.733 261.353 178.35 260.78 176.907 260.78Z" fill="#E6E6E6"/>
<path d="M176.907 290.505H103.568C102.126 290.505 100.742 291.078 99.722 292.098C98.702 293.118 98.129 294.502 98.129 295.944C98.129 297.387 98.702 298.77 99.722 299.791C100.742 300.811 102.126 301.384 103.568 301.384H176.907C178.349 301.384 179.733 300.811 180.753 299.791C181.773 298.77 182.346 297.387 182.346 295.944C182.346 294.502 181.773 293.118 180.753 292.098C179.733 291.078 178.349 290.505 176.907 290.505Z" fill="#E6E6E6"/>
<path d="M369.147 231.056H295.808C294.365 231.056 292.982 231.629 291.962 232.649C290.942 233.669 290.369 235.053 290.369 236.495C290.369 237.938 290.942 239.322 291.962 240.342C292.982 241.362 294.365 241.935 295.808 241.935H369.147C370.589 241.935 371.973 241.362 372.993 240.342C374.013 239.322 374.586 237.938 374.586 236.495C374.586 235.053 374.013 233.669 372.993 232.649C371.973 231.629 370.589 231.056 369.147 231.056Z" fill="#E6E6E6"/>
<path d="M369.147 260.78H295.808C294.365 260.78 292.982 261.353 291.962 262.373C290.942 263.394 290.369 264.777 290.369 266.22C290.369 267.662 290.942 269.046 291.962 270.066C292.982 271.086 294.365 271.659 295.808 271.659H369.147C370.589 271.659 371.973 271.086 372.993 270.066C374.013 269.046 374.586 267.662 374.586 266.22C374.586 264.777 374.013 263.394 372.993 262.373C371.973 261.353 370.589 260.78 369.147 260.78Z" fill="#E6E6E6"/>
<path d="M369.147 290.505H295.808C294.515 290.503 293.264 290.962 292.278 291.8C291.293 292.637 290.639 293.799 290.432 295.075C290.226 296.352 290.481 297.66 291.151 298.765C291.822 299.871 292.865 300.701 294.092 301.107C294.645 301.293 295.225 301.387 295.808 301.384H369.147C370.589 301.384 371.973 300.811 372.993 299.791C374.013 298.77 374.586 297.387 374.586 295.944C374.586 294.502 374.013 293.118 372.993 292.098C371.973 291.078 370.589 290.505 369.147 290.505Z" fill="#E6E6E6"/>
<path d="M561.386 231.056H488.047C486.605 231.056 485.221 231.629 484.201 232.649C483.181 233.669 482.608 235.053 482.608 236.495C482.608 237.938 483.181 239.322 484.201 240.342C485.221 241.362 486.605 241.935 488.047 241.935H561.386C562.829 241.935 564.212 241.362 565.232 240.342C566.252 239.322 566.825 237.938 566.825 236.495C566.825 235.053 566.252 233.669 565.232 232.649C564.212 231.629 562.829 231.056 561.386 231.056Z" fill="#E6E6E6"/>
<path d="M561.386 260.78H488.047C486.802 260.778 485.595 261.203 484.625 261.985C483.656 262.766 482.985 263.857 482.723 265.074C482.462 266.291 482.626 267.561 483.188 268.672C483.751 269.783 484.678 270.666 485.814 271.176C486.515 271.495 487.277 271.66 488.047 271.659H561.386C562.829 271.659 564.212 271.086 565.232 270.066C566.252 269.046 566.825 267.662 566.825 266.22C566.825 264.777 566.252 263.394 565.232 262.373C564.212 261.353 562.829 260.78 561.386 260.78Z" fill="#E6E6E6"/>
<path d="M561.386 290.505H488.047C486.605 290.505 485.221 291.078 484.201 292.098C483.181 293.118 482.608 294.502 482.608 295.944C482.608 297.387 483.181 298.77 484.201 299.791C485.221 300.811 486.605 301.384 488.047 301.384H561.386C562.829 301.384 564.212 300.811 565.232 299.791C566.252 298.77 566.825 297.387 566.825 295.944C566.825 294.502 566.252 293.118 565.232 292.098C564.212 291.078 562.829 290.505 561.386 290.505Z" fill="#E6E6E6"/>
<path d="M21.7857 22.2555C24.5089 22.2555 26.7165 20.0477 26.7165 17.3243C26.7165 14.6009 24.5089 12.3932 21.7857 12.3932C19.0625 12.3932 16.8549 14.6009 16.8549 17.3243C16.8549 20.0477 19.0625 22.2555 21.7857 22.2555Z" fill="white"/>
<path d="M40.5018 22.2555C43.225 22.2555 45.4326 20.0477 45.4326 17.3243C45.4326 14.6009 43.225 12.3932 40.5018 12.3932C37.7786 12.3932 35.571 14.6009 35.571 17.3243C35.571 20.0477 37.7786 22.2555 40.5018 22.2555Z" fill="white"/>
<path d="M59.2179 22.2555C61.9411 22.2555 64.1487 20.0477 64.1487 17.3243C64.1487 14.6009 61.9411 12.3932 59.2179 12.3932C56.4947 12.3932 54.2871 14.6009 54.2871 17.3243C54.2871 20.0477 56.4947 22.2555 59.2179 22.2555Z" fill="white"/>
<path d="M156.036 231.056H103.568C102.126 231.056 100.742 231.629 99.7221 232.649C98.7021 233.669 98.129 235.053 98.129 236.495C98.129 237.938 98.7021 239.322 99.7221 240.342C100.742 241.362 102.126 241.935 103.568 241.935H154.943C155.983 241.509 156.887 240.808 157.558 239.908C158.23 239.008 158.644 237.941 158.757 236.824C158.869 235.706 158.675 234.579 158.196 233.563C157.717 232.547 156.97 231.68 156.036 231.056Z" fill="#C4DB6E"/>
<path d="M131.805 260.78H103.568C102.323 260.778 101.115 261.203 100.146 261.985C99.177 262.766 98.5056 263.857 98.244 265.074C97.9825 266.291 98.1467 267.561 98.7092 268.672C99.2717 269.783 100.198 270.666 101.334 271.176H127.27C128.912 271.175 130.487 270.522 131.648 269.361C132.81 268.2 133.462 266.625 133.463 264.982C133.472 263.42 132.878 261.915 131.805 260.78Z" fill="#C4DB6E"/>
<path d="M171.427 290.505H103.568C102.126 290.505 100.742 291.078 99.7221 292.098C98.7021 293.118 98.129 294.502 98.129 295.944C98.129 297.387 98.7021 298.77 99.7221 299.791C100.742 300.811 102.126 301.384 103.568 301.384H171.865C172.826 300.816 173.617 299.999 174.151 299.018C174.685 298.037 174.944 296.93 174.899 295.814C174.854 294.697 174.507 293.614 173.896 292.68C173.285 291.745 172.432 290.993 171.427 290.505Z" fill="#C4DB6E"/>
<path d="M506.109 231.056H488.048C486.843 231.054 485.672 231.453 484.719 232.189C483.765 232.925 483.083 233.956 482.779 235.122C482.474 236.287 482.566 237.521 483.038 238.629C483.51 239.737 484.337 240.657 485.388 241.244H501.389C503.031 241.244 504.606 240.591 505.768 239.429C506.929 238.268 507.581 236.693 507.582 235.051C507.587 233.585 507.064 232.167 506.109 231.056Z" fill="#C4DB6E"/>
<path d="M519.738 260.78H488.047C486.803 260.778 485.595 261.203 484.625 261.985C483.656 262.766 482.985 263.857 482.723 265.074C482.462 266.291 482.626 267.561 483.189 268.672C483.751 269.783 484.678 270.666 485.814 271.176H515.203C516.845 271.175 518.42 270.522 519.581 269.361C520.742 268.2 521.395 266.625 521.396 264.982C521.404 263.42 520.811 261.915 519.738 260.78Z" fill="#C4DB6E"/>
<path d="M542.093 290.505H488.047C486.605 290.505 485.221 291.078 484.201 292.098C483.181 293.118 482.608 294.502 482.608 295.944C482.608 297.387 483.181 298.77 484.201 299.791C485.221 300.811 486.605 301.384 488.047 301.384H542.53C543.492 300.816 544.282 299.999 544.817 299.018C545.351 298.037 545.609 296.93 545.564 295.814C545.52 294.697 545.173 293.614 544.562 292.68C543.951 291.745 543.097 290.993 542.093 290.505Z" fill="#C4DB6E"/>
<path d="M364.047 260.78H295.808C294.365 260.78 292.982 261.353 291.962 262.373C290.942 263.394 290.369 264.777 290.369 266.22C290.369 267.662 290.942 269.046 291.962 270.066C292.982 271.086 294.365 271.659 295.808 271.659H363.736C364.733 271.159 365.577 270.397 366.176 269.456C366.776 268.514 367.109 267.428 367.141 266.313C367.173 265.197 366.902 264.094 366.357 263.12C365.812 262.145 365.014 261.337 364.047 260.78Z" fill="#C4DB6E"/>
<path d="M303.129 290.505H295.808C294.515 290.503 293.264 290.962 292.278 291.8C291.293 292.637 290.639 293.799 290.432 295.075C290.226 296.352 290.481 297.66 291.151 298.765C291.822 299.871 292.865 300.701 294.092 301.107H298.789C300.431 301.107 302.006 300.454 303.168 299.293C304.329 298.131 304.982 296.556 304.982 294.914C304.985 294.092 304.823 293.278 304.504 292.521C304.186 291.763 303.718 291.078 303.129 290.505Z" fill="#C4DB6E"/>
<path d="M335.614 231.056H295.808C294.365 231.056 292.982 231.629 291.962 232.649C290.942 233.669 290.369 235.053 290.369 236.495C290.369 237.938 290.942 239.322 291.962 240.342C292.982 241.362 294.365 241.935 295.808 241.935H334.52C335.56 241.509 336.464 240.808 337.136 239.908C337.807 239.008 338.222 237.941 338.334 236.824C338.446 235.706 338.252 234.579 337.773 233.563C337.294 232.547 336.547 231.68 335.614 231.056Z" fill="#C4DB6E"/>
<path d="M900.849 535H651.052C650.747 535 650.454 534.879 650.238 534.663C650.023 534.447 649.901 534.154 649.901 533.849C649.901 533.544 650.023 533.251 650.238 533.035C650.454 532.819 650.747 532.698 651.052 532.698H900.849C901.154 532.698 901.447 532.819 901.663 533.035C901.879 533.251 902 533.544 902 533.849C902 534.154 901.879 534.447 901.663 534.663C901.447 534.879 901.154 535 900.849 535Z" fill="#CCCCCC"/>
</g>
<defs>
<clipPath id="clip0_135_260">
<rect width="902" height="535" fill="white"/>
</clipPath>
</defs>
</svg>
