<svg width="848" height="682" viewBox="0 0 848 682" fill="none" xmlns="http://www.w3.org/2000/svg">
<g clip-path="url(#clip0_135_220)">
<path d="M841.718 395.334H194.236C192.57 395.332 190.973 394.669 189.796 393.492C188.618 392.314 187.955 390.717 187.954 389.052V6.28178C187.955 4.61631 188.618 3.01957 189.796 1.8419C190.973 0.664229 192.57 0.00181811 194.236 0H841.718C843.383 0.00181811 844.98 0.664232 846.158 1.8419C847.336 3.01957 847.998 4.61631 848 6.28178V389.052C847.998 390.717 847.336 392.314 846.158 393.492C844.98 394.669 843.383 395.332 841.718 395.334ZM194.236 2.51271C193.236 2.5138 192.278 2.91125 191.572 3.61785C190.865 4.32445 190.468 5.2825 190.466 6.28178V389.052C190.468 390.051 190.865 391.009 191.572 391.716C192.278 392.422 193.236 392.82 194.236 392.821H841.718C842.717 392.82 843.675 392.422 844.382 391.716C845.089 391.009 845.486 390.051 845.487 389.052V6.28178C845.486 5.2825 845.089 4.32446 844.382 3.61786C843.675 2.91125 842.717 2.5138 841.718 2.51271H194.236Z" fill="#E6E6E6"/>
<path d="M455.564 30.57C454.258 30.5919 453.012 31.1262 452.096 32.0578C451.18 32.9894 450.667 34.2437 450.667 35.5503C450.667 36.8568 451.18 38.1111 452.096 39.0427C453.012 39.9743 454.258 40.5086 455.564 40.5305H580.442C581.76 40.5499 583.032 40.046 583.98 39.1291C584.927 38.2123 585.472 36.9573 585.496 35.6392C585.519 34.321 585.019 33.0473 584.105 32.0972C583.191 31.147 581.938 30.598 580.62 30.5703L580.605 30.57C580.551 30.5691 580.496 30.5691 580.442 30.57H455.564Z" fill="#3F3D56"/>
<path d="M608.761 29.1833C608.577 29.367 608.474 29.6163 608.474 29.8762C608.474 30.1361 608.577 30.3853 608.761 30.5691L612.968 34.7762H602.594C602.334 34.777 602.086 34.8806 601.902 35.0643C601.719 35.248 601.616 35.4968 601.616 35.7562C601.616 36.0156 601.719 36.2645 601.902 36.4482C602.086 36.6319 602.334 36.7355 602.594 36.7362H612.968L608.761 40.9433C608.67 41.0343 608.598 41.1423 608.549 41.2612C608.499 41.3801 608.474 41.5075 608.474 41.6362C608.474 41.7649 608.499 41.8924 608.549 42.0113C608.598 42.1302 608.67 42.2382 608.761 42.3292C608.852 42.4202 608.96 42.4924 609.079 42.5416C609.198 42.5909 609.325 42.6162 609.454 42.6162C609.583 42.6162 609.71 42.5909 609.829 42.5417C609.948 42.4924 610.056 42.4202 610.147 42.3292L616.027 36.4492C616.211 36.2654 616.314 36.0162 616.314 35.7562C616.314 35.4963 616.211 35.2471 616.027 35.0633L610.147 29.1833C610.056 29.0923 609.948 29.0201 609.829 28.9708C609.71 28.9216 609.583 28.8962 609.454 28.8962C609.325 28.8962 609.198 28.9216 609.079 28.9708C608.96 29.0201 608.852 29.0923 608.761 29.1833Z" fill="#E6E6E6"/>
<path d="M427.192 29.1833C427.376 29.367 427.479 29.6163 427.48 29.8762C427.48 30.1361 427.376 30.3854 427.193 30.5692L422.985 34.7762H433.36C433.489 34.7757 433.617 34.8007 433.736 34.8496C433.855 34.8986 433.963 34.9706 434.055 35.0615C434.146 35.1524 434.219 35.2605 434.268 35.3795C434.318 35.4985 434.344 35.6262 434.344 35.7551C434.344 35.884 434.319 36.0117 434.269 36.1308C434.22 36.25 434.148 36.3582 434.057 36.4493C433.965 36.5405 433.857 36.6128 433.738 36.662C433.619 36.7112 433.491 36.7365 433.362 36.7363H422.985L427.192 40.9433C427.283 41.0343 427.356 41.1423 427.405 41.2612C427.454 41.3801 427.48 41.5075 427.48 41.6362C427.48 41.7649 427.454 41.8924 427.405 42.0113C427.356 42.1302 427.283 42.2382 427.192 42.3292C427.101 42.4202 426.993 42.4924 426.874 42.5417C426.756 42.5909 426.628 42.6163 426.499 42.6163C426.371 42.6163 426.243 42.5909 426.124 42.5417C426.005 42.4924 425.897 42.4202 425.806 42.3292L419.926 36.4492C419.742 36.2654 419.639 36.0162 419.639 35.7563C419.639 35.4964 419.742 35.2471 419.926 35.0633L425.806 29.1833C425.99 28.9995 426.239 28.8963 426.499 28.8962C426.759 28.8962 427.009 28.9995 427.192 29.1833Z" fill="#E6E6E6"/>
<path d="M187.579 416.418C181.901 416.418 176.351 414.734 171.63 411.58C166.909 408.426 163.229 403.943 161.057 398.697C158.884 393.452 158.315 387.68 159.423 382.112C160.531 376.544 163.265 371.429 167.28 367.414C171.294 363.4 176.41 360.666 181.978 359.558C187.547 358.451 193.319 359.019 198.565 361.192C203.81 363.364 208.294 367.044 211.448 371.764C214.602 376.485 216.286 382.035 216.286 387.712C216.286 395.325 213.262 402.627 207.878 408.01C202.494 413.394 195.192 416.418 187.579 416.418Z" fill="#3E516E"/>
<path d="M198.906 384.881H190.411V376.386C190.411 375.635 190.112 374.915 189.581 374.383C189.05 373.852 188.33 373.554 187.579 373.554C186.828 373.554 186.107 373.852 185.576 374.383C185.045 374.915 184.747 375.635 184.747 376.386V384.881H176.251C175.5 384.881 174.78 385.179 174.249 385.71C173.718 386.241 173.42 386.961 173.42 387.712C173.42 388.463 173.718 389.184 174.249 389.715C174.78 390.246 175.5 390.544 176.251 390.544H184.747V399.039C184.747 399.79 185.045 400.51 185.576 401.041C186.107 401.572 186.828 401.871 187.579 401.871C188.33 401.871 189.05 401.572 189.581 401.041C190.112 400.51 190.411 399.79 190.411 399.039V390.544H198.906C199.657 390.544 200.377 390.246 200.908 389.715C201.439 389.184 201.738 388.463 201.738 387.712C201.738 386.961 201.439 386.241 200.908 385.71C200.377 385.179 199.657 384.881 198.906 384.881Z" fill="white"/>
<path d="M326.58 81.5607H240.305V140.191H326.58V81.5607Z" fill="#F1F1F1"/>
<path d="M443.847 81.5607H357.572V140.191H443.847V81.5607Z" fill="#F1F1F1"/>
<path d="M561.114 81.5607H474.839V140.191H561.114V81.5607Z" fill="#F1F1F1"/>
<path d="M678.381 81.5607H592.106V140.191H678.381V81.5607Z" fill="#F1F1F1"/>
<path d="M795.649 81.5607H709.374V140.191H795.649V81.5607Z" fill="#F1F1F1"/>
<path d="M326.896 184.582H240.621V243.212H326.896V184.582Z" fill="#F1F1F1"/>
<path d="M444.164 184.582H357.888V243.212H444.164V184.582Z" fill="#F1F1F1"/>
<path d="M561.431 184.582H475.156V243.212H561.431V184.582Z" fill="#F1F1F1"/>
<path d="M678.698 184.582H592.423V243.212H678.698V184.582Z" fill="#F1F1F1"/>
<path d="M795.965 184.582H709.69V243.212H795.965V184.582Z" fill="#F1F1F1"/>
<path d="M327.213 287.603H240.938V346.233H327.213V287.603Z" fill="#F1F1F1"/>
<path d="M444.48 287.603H358.205V346.233H444.48V287.603Z" fill="#F1F1F1"/>
<path d="M561.747 287.603H475.472V346.233H561.747V287.603Z" fill="#F1F1F1"/>
<path d="M679.014 287.603H592.739V346.233H679.014V287.603Z" fill="#F1F1F1"/>
<path d="M796.281 287.603H710.006V346.233H796.281V287.603Z" fill="#F1F1F1"/>
<path d="M492.746 110.876C498.76 110.876 503.635 106.001 503.635 99.9872C503.635 93.9737 498.76 89.0988 492.746 89.0988C486.732 89.0988 481.857 93.9737 481.857 99.9872C481.857 106.001 486.732 110.876 492.746 110.876Z" fill="#3F3D56"/>
<path d="M373.803 213.897C379.817 213.897 384.692 209.022 384.692 203.008C384.692 196.995 379.817 192.12 373.803 192.12C367.789 192.12 362.914 196.995 362.914 203.008C362.914 209.022 367.789 213.897 373.803 213.897Z" fill="#3F3D56"/>
<path d="M492.746 316.918C498.76 316.918 503.635 312.043 503.635 306.03C503.635 300.016 498.76 295.141 492.746 295.141C486.732 295.141 481.857 300.016 481.857 306.03C481.857 312.043 486.732 316.918 492.746 316.918Z" fill="#3F3D56"/>
<path d="M612.526 213.897C618.54 213.897 623.415 209.022 623.415 203.008C623.415 196.995 618.54 192.12 612.526 192.12C606.512 192.12 601.637 196.995 601.637 203.008C601.637 209.022 606.512 213.897 612.526 213.897Z" fill="#3E516E"/>
<path d="M728.955 213.897C734.969 213.897 739.844 209.022 739.844 203.008C739.844 196.995 734.969 192.12 728.955 192.12C722.941 192.12 718.066 196.995 718.066 203.008C718.066 209.022 722.941 213.897 728.955 213.897Z" fill="#3E516E"/>
<path d="M373.803 316.918C379.817 316.918 384.692 312.043 384.692 306.03C384.692 300.016 379.817 295.141 373.803 295.141C367.789 295.141 362.914 300.016 362.914 306.03C362.914 312.043 367.789 316.918 373.803 316.918Z" fill="#3E516E"/>
<path d="M88.2992 410.028C99.4691 410.028 108.524 400.973 108.524 389.804C108.524 378.635 99.4691 369.58 88.2992 369.58C77.1293 369.58 68.0743 378.635 68.0743 389.804C68.0743 400.973 77.1293 410.028 88.2992 410.028Z" fill="#FFB8B8"/>
<path d="M80.9971 509.471C80.7424 509.471 80.4865 509.459 80.2295 509.437C78.9575 509.331 77.7223 508.957 76.6048 508.34C75.4873 507.723 74.5128 506.877 73.7451 505.858C72.9773 504.838 72.4337 503.668 72.1499 502.423C71.866 501.179 71.8483 499.889 72.0979 498.637C72.1569 498.346 72.2312 498.059 72.3203 497.776L42.4701 462.474C41.4975 461.315 40.9245 459.873 40.8364 458.362C40.7482 456.851 41.1494 455.353 41.9806 454.088L42.0347 454.022L68.9034 427.53C70.3706 426.086 72.3513 425.283 74.4102 425.298C76.4691 425.313 78.4376 426.145 79.8832 427.611C81.3288 429.078 82.1331 431.058 82.1193 433.116C82.1055 435.175 81.2747 437.144 79.8096 438.591C79.7759 438.624 79.7419 438.657 79.7076 438.689L60.2475 457.189L81.5515 491.379C81.955 491.4 82.3566 491.45 82.7531 491.527C84.9568 491.967 86.9185 493.21 88.2571 495.015C89.5957 496.819 90.2158 499.057 89.997 501.294C89.7781 503.53 88.7359 505.605 87.0728 507.116C85.4096 508.627 83.2442 509.466 80.9971 509.471Z" fill="#FFB8B8"/>
<path d="M121.609 671.266H131.705L136.507 632.329L121.607 632.329L121.609 671.266Z" fill="#FFB8B8"/>
<path d="M119.034 667.97L138.916 667.969C140.58 667.969 142.228 668.297 143.765 668.934C145.302 669.57 146.699 670.503 147.875 671.68C149.052 672.856 149.985 674.253 150.622 675.79C151.259 677.327 151.587 678.974 151.587 680.638V681.05L119.035 681.051L119.034 667.97Z" fill="#2F2E41"/>
<path d="M21.2673 657.309L29.9415 662.473L53.9904 631.475L41.1878 623.853L21.2673 657.309Z" fill="#FFB8B8"/>
<path d="M20.7409 653.16L37.8236 663.33C40.7107 665.049 42.7975 667.845 43.6235 671.102C44.4494 674.359 43.9477 677.81 42.2286 680.697L42.0177 681.051L14.0485 664.4L20.7409 653.16Z" fill="#2F2E41"/>
<path d="M134.087 657.513H122.782C121.867 657.515 120.984 657.177 120.303 656.565C119.623 655.953 119.193 655.11 119.098 654.2L107.701 547.078C107.672 546.808 107.556 546.555 107.369 546.359C107.182 546.162 106.936 546.032 106.669 545.989C106.401 545.946 106.126 545.992 105.887 546.121C105.649 546.249 105.459 546.453 105.347 546.7L84.7872 592.223L48.3872 651.573C47.9161 652.334 47.1867 652.9 46.3325 653.167C45.4784 653.434 44.5566 653.384 43.736 653.027L29.1945 646.63C28.7137 646.418 28.2834 646.107 27.9321 645.716C27.5808 645.326 27.3165 644.865 27.1568 644.364C26.9972 643.864 26.9457 643.335 27.0059 642.813C27.066 642.291 27.2364 641.788 27.5058 641.337L60.9674 585.312L71.2298 538.108C68.0021 517.637 81.839 487.203 81.9793 486.897L82.0479 486.748L120.162 471.852L120.353 472.086C135.384 521.41 144.544 574.49 137.781 654.118C137.697 655.042 137.273 655.902 136.59 656.529C135.907 657.157 135.015 657.508 134.087 657.513Z" fill="#2F2E41"/>
<path d="M80.5124 491.736L80.3349 491.363C80.25 491.185 71.775 473.311 65.2419 454.208C63.9864 450.514 63.5117 446.599 63.8481 442.712C64.1844 438.825 65.3244 435.05 67.1958 431.626C69.0916 428.167 71.6851 425.139 74.8122 422.735C77.9392 420.331 81.5315 418.602 85.3616 417.658C92.0108 416.064 99.0112 416.912 105.088 420.047C111.164 423.182 115.912 428.396 118.466 434.738C123.648 447.696 121.997 461.527 120.442 472.404L120.411 472.622L120.213 472.717L80.5124 491.736Z" fill="#3E516E"/>
<path d="M112.821 378.38H80.7065V364.382C87.7553 361.582 94.653 359.201 98.8225 364.382C102.535 364.382 106.096 365.857 108.721 368.482C111.346 371.107 112.821 374.668 112.821 378.38Z" fill="#2F2E41"/>
<path d="M78.9286 361.912C59.7298 361.912 54.3561 385.975 54.3561 399.551C54.3561 407.122 57.7802 409.829 63.1608 410.746L65.061 400.612L69.5115 411.182C71.0229 411.189 72.6107 411.16 74.2568 411.129L75.7658 408.022L79.1308 411.074C92.608 411.094 103.501 413.058 103.501 399.551C103.501 385.975 98.788 361.912 78.9286 361.912Z" fill="#2F2E41"/>
<path d="M164.265 388.843C164.388 389.067 164.5 389.297 164.604 389.533C165.12 390.7 165.385 391.963 165.379 393.24C165.374 394.516 165.098 395.777 164.572 396.939C164.045 398.102 163.278 399.14 162.322 399.986C161.366 400.832 160.242 401.466 159.024 401.847C158.741 401.934 158.453 402.007 158.162 402.065L141.491 445.184C140.94 446.593 139.949 447.787 138.666 448.589C137.382 449.39 135.874 449.757 134.366 449.634L134.282 449.618L98.1503 438.741C96.1779 438.148 94.5222 436.795 93.5475 434.98C92.5727 433.165 92.3588 431.038 92.9527 429.066C93.5467 427.093 94.8998 425.438 96.7145 424.463C98.5292 423.488 100.657 423.274 102.629 423.868C102.674 423.882 102.719 423.896 102.764 423.91L128.329 432.118L148.122 397.031C147.947 396.666 147.798 396.29 147.676 395.905C147.005 393.761 147.156 391.443 148.098 389.404C149.04 387.364 150.707 385.747 152.774 384.867C154.842 383.986 157.163 383.906 159.286 384.641C161.41 385.376 163.184 386.874 164.265 388.843Z" fill="#FFB8B8"/>
<path d="M168.456 682H0.872827C0.641339 682 0.419331 681.908 0.255644 681.744C0.0919576 681.581 0 681.359 0 681.127C0 680.896 0.0919576 680.674 0.255644 680.51C0.419331 680.346 0.641339 680.255 0.872827 680.255H168.456C168.687 680.255 168.909 680.346 169.073 680.51C169.236 680.674 169.328 680.896 169.328 681.127C169.328 681.359 169.236 681.581 169.073 681.744C168.909 681.908 168.687 682 168.456 682Z" fill="#CCCCCC"/>
</g>
<defs>
<clipPath id="clip0_135_220">
<rect width="848" height="682" fill="white"/>
</clipPath>
</defs>
</svg>
