<svg width="32" height="50" viewBox="0 0 32 50" fill="none" xmlns="http://www.w3.org/2000/svg">
<path d="M18.6387 21.8757C18.4157 21.7053 18.2149 21.5004 18.0361 21.2756C16.8937 22.0697 15.3477 22.1278 14.196 21.5186C13.6063 22.1676 12.8029 22.6009 11.8687 22.5212C11.6291 22.5012 11.4043 22.4396 11.1961 22.3489L14.5645 46.5036C15.0068 46.5725 15.4601 46.6124 15.9207 46.6197V46.6469C16.3501 46.6469 16.7739 46.616 17.1885 46.5617L21.2111 22.2909C20.3837 22.6046 19.3997 22.4632 18.6369 21.8776L18.6387 21.8757Z" fill="#C4DB6E"/>
<path d="M16.0295 0.0199432V0C7.1754 0 0 7.05986 0 15.7714C0 19.4318 3.09386 24.2254 4.896 28.8141C6.25959 32.2933 6.45123 35.9646 6.45123 37.1504C6.45123 41.5832 9.54324 45.298 13.7206 46.3314L10.26 21.5186C10.0058 21.0944 9.9081 20.5813 10.0279 20.0627C10.1624 19.4808 11.069 19.7292 10.9363 20.3093C10.8921 20.5033 10.8958 20.6683 10.9289 20.8152L10.9842 20.8079L11.0174 21.0472C11.3767 21.66 12.4915 21.6854 13.1107 21.2648C13.2341 21.1814 13.3447 21.0798 13.4534 20.9711C12.9835 20.4979 12.6666 19.8579 12.6132 19.0529C12.5431 18.0159 13.3244 16.5183 14.6088 17.0695C15.8526 17.6043 15.3293 19.4137 14.9515 20.3238C14.8889 20.4743 14.817 20.623 14.7359 20.768C15.1671 21.0001 15.6702 21.1034 16.1824 21.0454C16.6947 20.9892 17.159 20.7861 17.546 20.4852C17.0853 19.5352 16.9213 18.3966 17.0946 17.4357C17.3065 16.2609 18.7216 15.9925 19.3703 17.0151C20.0557 18.0956 19.4698 19.74 18.7216 20.6465C18.7953 20.7444 18.8764 20.8387 18.9667 20.9276C19.6706 21.6219 20.9126 21.8449 21.5391 20.9203C21.8745 20.4254 22.6889 20.8913 22.3517 21.3881C22.2872 21.4823 22.219 21.5675 22.1453 21.6491L18.0546 46.3985L18.0067 46.4185C22.3222 45.4811 25.5488 41.6974 25.5488 37.1739C25.5488 35.9882 25.7423 32.3169 27.104 28.8341C28.9061 24.2472 32 19.4554 32 15.7913C32 7.10155 24.8578 0.0525774 16.0295 0.0199432Z" fill="#C4DB6E"/>
<path d="M14.1112 18.1029C13.7003 18.0032 13.6487 18.1917 13.5713 18.5489C13.4718 19.0112 13.6119 19.5207 13.8459 19.9213C13.8956 20.0084 13.9546 20.0863 14.0136 20.1643C14.2586 19.6748 14.4061 19.1272 14.4374 18.6395C14.4595 18.2951 14.4927 18.1972 14.1094 18.1029H14.1112Z" fill="#C4DB6E"/>
<path d="M18.7032 18.0086C18.6848 17.7493 18.3642 16.9571 18.038 17.4955C17.9532 17.6351 18.0012 17.9288 18.0048 18.0811C18.0177 18.6105 18.0804 19.1726 18.2462 19.6965C18.3365 19.5479 18.4194 19.3956 18.4839 19.2324C18.6332 18.8535 18.7309 18.4165 18.7014 18.0086H18.7032Z" fill="#C4DB6E"/>
<path d="M16.1511 46.161C15.0049 44.7867 13.3465 43.4306 11.5812 43.0608C9.81596 42.6891 7.85719 43.0735 6.49361 44.2392C4.91074 45.5935 4.1921 47.8671 2.32178 48.8026C4.51825 49.8976 8.08937 50.0137 10.5107 49.5822C12.9319 49.1488 16.164 46.3623 16.1493 46.161H16.1511Z" fill="#61A46E"/>
<path d="M16.2819 46.0323C15.4896 45.0895 14.5553 44.2356 13.4773 43.6174C12.3994 42.9991 11.2753 42.709 10.0684 42.7453C8.91118 42.7797 7.7466 43.1152 6.79578 43.7769C5.90945 44.3933 5.28294 45.2672 4.67486 46.1338C4.00043 47.0929 3.30759 48.0937 2.22778 48.6466C2.10984 48.7065 2.10616 48.9005 2.22778 48.9603C3.27073 49.4734 4.42425 49.729 5.57593 49.8722C6.82158 50.0263 8.08934 50.039 9.33868 49.9212C9.86016 49.8722 10.3945 49.8124 10.9031 49.6819C11.4117 49.5513 11.8834 49.3555 12.3441 49.1325C13.2802 48.6793 14.1554 48.1009 14.9791 47.4718C15.3163 47.2144 15.648 46.9479 15.9557 46.6596C16.0866 46.5381 16.3261 46.3586 16.3335 46.1628C16.3427 45.9289 15.9742 45.9289 15.965 46.1628C15.9686 46.083 16.0055 46.1048 15.9613 46.1302C15.965 46.1284 15.9429 46.1519 15.9171 46.1828C15.8397 46.268 15.7549 46.3477 15.6701 46.4257C15.4122 46.665 15.1376 46.8898 14.8594 47.1056C14.1002 47.6966 13.2894 48.2369 12.4325 48.6811C11.9866 48.9113 11.5259 49.118 11.045 49.2649C10.5641 49.4117 10.0665 49.4806 9.56901 49.535C8.42287 49.6601 7.26198 49.6692 6.11399 49.5658C4.85175 49.4534 3.5545 49.2087 2.41389 48.6466V48.9603C4.27315 48.0085 4.97521 45.909 6.43093 44.5402C8.12251 42.9484 10.8313 42.6945 12.8858 43.7153C14.1094 44.3226 15.1505 45.2563 16.0184 46.2897C16.1695 46.4692 16.4293 46.2118 16.2782 46.0341L16.2819 46.0323Z" fill="#61A46E"/>
</svg>
