<svg width="154" height="50" viewBox="0 0 154 50" fill="none" xmlns="http://www.w3.org/2000/svg">
<path d="M2.272 49.04V25.008H7.136L7.328 28.816L6.368 28.528C6.51733 27.824 6.88 27.184 7.456 26.608C8.032 26.032 8.75733 25.5733 9.632 25.232C10.528 24.8693 11.4667 24.688 12.448 24.688C13.8987 24.688 15.1893 25.072 16.32 25.84C17.4507 26.5867 18.336 27.6213 18.976 28.944C19.6373 30.2453 19.968 31.76 19.968 33.488C19.968 35.1947 19.6373 36.7093 18.976 38.032C18.336 39.3547 17.44 40.4 16.288 41.168C15.1573 41.9147 13.856 42.288 12.384 42.288C11.424 42.288 10.5067 42.1067 9.632 41.744C8.75733 41.3813 8.02133 40.8907 7.424 40.272C6.82667 39.6533 6.432 38.9813 6.24 38.256L7.424 37.808V49.04H2.272ZM11.136 37.968C11.904 37.968 12.576 37.7867 13.152 37.424C13.728 37.04 14.176 36.5173 14.496 35.856C14.816 35.1947 14.976 34.4053 14.976 33.488C14.976 32.592 14.816 31.8133 14.496 31.152C14.176 30.4693 13.728 29.9467 13.152 29.584C12.5973 29.2 11.9253 29.008 11.136 29.008C10.3467 29.008 9.664 29.1893 9.088 29.552C8.512 29.9147 8.064 30.4373 7.744 31.12C7.424 31.8027 7.264 32.592 7.264 33.488C7.264 34.4053 7.424 35.1947 7.744 35.856C8.064 36.5173 8.512 37.04 9.088 37.424C9.664 37.7867 10.3467 37.968 11.136 37.968ZM31.4618 42.32C29.5844 42.32 27.9524 41.9467 26.5658 41.2C25.1791 40.432 24.1018 39.3973 23.3338 38.096C22.5658 36.7733 22.1818 35.2693 22.1818 33.584C22.1818 32.2827 22.3951 31.088 22.8218 30C23.2484 28.912 23.8458 27.9733 24.6138 27.184C25.3818 26.3733 26.2884 25.7547 27.3338 25.328C28.4004 24.88 29.5631 24.656 30.8218 24.656C32.0164 24.656 33.1044 24.8693 34.0858 25.296C35.0884 25.7227 35.9524 26.32 36.6778 27.088C37.4031 27.856 37.9578 28.7627 38.3418 29.808C38.7258 30.8533 38.8964 31.9947 38.8538 33.232L38.8218 34.608H25.2858L24.5498 31.728H34.6618L34.1178 32.336V31.696C34.0751 31.1627 33.9044 30.6933 33.6058 30.288C33.3284 29.8613 32.9551 29.5307 32.4858 29.296C32.0164 29.0613 31.4831 28.944 30.8858 28.944C30.0538 28.944 29.3391 29.1147 28.7418 29.456C28.1658 29.776 27.7284 30.256 27.4298 30.896C27.1311 31.5147 26.9818 32.2827 26.9818 33.2C26.9818 34.1387 27.1738 34.96 27.5578 35.664C27.9631 36.3467 28.5391 36.88 29.2858 37.264C30.0538 37.648 30.9604 37.84 32.0058 37.84C32.7311 37.84 33.3711 37.7333 33.9258 37.52C34.5018 37.3067 35.1204 36.944 35.7818 36.432L38.1818 39.824C37.5204 40.4 36.8164 40.8693 36.0698 41.232C35.3231 41.5947 34.5551 41.8613 33.7658 42.032C32.9978 42.224 32.2298 42.32 31.4618 42.32ZM48.3878 42.288C46.9584 42.288 45.6784 41.9147 44.5477 41.168C43.4384 40.4 42.5531 39.3547 41.8918 38.032C41.2304 36.688 40.8997 35.1733 40.8997 33.488C40.8997 31.76 41.2304 30.2347 41.8918 28.912C42.5531 27.5893 43.4598 26.5547 44.6118 25.808C45.7638 25.04 47.0758 24.656 48.5478 24.656C49.3584 24.656 50.0944 24.7733 50.7558 25.008C51.4384 25.2427 52.0358 25.5733 52.5478 26C53.0598 26.4053 53.4971 26.8853 53.8598 27.44C54.2224 27.9733 54.4891 28.5493 54.6598 29.168L53.6038 29.04V25.008H58.6918V42H53.5078V37.904L54.6598 37.872C54.4891 38.4693 54.2118 39.0347 53.8278 39.568C53.4438 40.1013 52.9744 40.5707 52.4198 40.976C51.8651 41.3813 51.2464 41.7013 50.5638 41.936C49.8811 42.1707 49.1558 42.288 48.3878 42.288ZM49.7958 37.968C50.5851 37.968 51.2678 37.7867 51.8438 37.424C52.4198 37.0613 52.8678 36.5493 53.1878 35.888C53.5078 35.2053 53.6678 34.4053 53.6678 33.488C53.6678 32.5707 53.5078 31.7813 53.1878 31.12C52.8678 30.4373 52.4198 29.9147 51.8438 29.552C51.2678 29.168 50.5851 28.976 49.7958 28.976C49.0278 28.976 48.3558 29.168 47.7798 29.552C47.2251 29.9147 46.7878 30.4373 46.4678 31.12C46.1478 31.7813 45.9878 32.5707 45.9878 33.488C45.9878 34.4053 46.1478 35.2053 46.4678 35.888C46.7878 36.5493 47.2251 37.0613 47.7798 37.424C48.3558 37.7867 49.0278 37.968 49.7958 37.968ZM63.2095 42V25.008H68.0735L68.2975 30.544L67.3375 29.488C67.5935 28.5707 68.0095 27.7493 68.5855 27.024C69.1828 26.2987 69.8762 25.7227 70.6655 25.296C71.4548 24.8693 72.2975 24.656 73.1935 24.656C73.5775 24.656 73.9295 24.688 74.2495 24.752C74.5908 24.816 74.9002 24.8907 75.1775 24.976L73.7695 30.64C73.5348 30.4907 73.2148 30.3733 72.8095 30.288C72.4255 30.1813 72.0202 30.128 71.5935 30.128C71.1242 30.128 70.6868 30.2133 70.2815 30.384C69.8762 30.5333 69.5348 30.7573 69.2575 31.056C68.9802 31.3547 68.7562 31.7067 68.5855 32.112C68.4362 32.5173 68.3615 32.976 68.3615 33.488V42H63.2095ZM85.1493 42.32C83.2719 42.32 81.6399 41.9467 80.2533 41.2C78.8666 40.432 77.7893 39.3973 77.0213 38.096C76.2533 36.7733 75.8693 35.2693 75.8693 33.584C75.8693 32.2827 76.0826 31.088 76.5093 30C76.9359 28.912 77.5333 27.9733 78.3013 27.184C79.0693 26.3733 79.9759 25.7547 81.0213 25.328C82.0879 24.88 83.2506 24.656 84.5093 24.656C85.7039 24.656 86.7919 24.8693 87.7733 25.296C88.7759 25.7227 89.6399 26.32 90.3653 27.088C91.0906 27.856 91.6453 28.7627 92.0293 29.808C92.4133 30.8533 92.5839 31.9947 92.5413 33.232L92.5093 34.608H78.9733L78.2373 31.728H88.3493L87.8053 32.336V31.696C87.7626 31.1627 87.5919 30.6933 87.2933 30.288C87.0159 29.8613 86.6426 29.5307 86.1733 29.296C85.7039 29.0613 85.1706 28.944 84.5733 28.944C83.7413 28.944 83.0266 29.1147 82.4293 29.456C81.8533 29.776 81.4159 30.256 81.1173 30.896C80.8186 31.5147 80.6693 32.2827 80.6693 33.2C80.6693 34.1387 80.8613 34.96 81.2453 35.664C81.6506 36.3467 82.2266 36.88 82.9733 37.264C83.7413 37.648 84.6479 37.84 85.6933 37.84C86.4186 37.84 87.0586 37.7333 87.6133 37.52C88.1893 37.3067 88.8079 36.944 89.4693 36.432L91.8693 39.824C91.2079 40.4 90.5039 40.8693 89.7573 41.232C89.0106 41.5947 88.2426 41.8613 87.4533 42.032C86.6853 42.224 85.9173 42.32 85.1493 42.32ZM102.235 42.352C100.763 42.352 99.4513 41.9787 98.2993 41.232C97.1686 40.464 96.2726 39.4187 95.6113 38.096C94.9499 36.752 94.6193 35.2267 94.6193 33.52C94.6193 31.8133 94.9499 30.2987 95.6113 28.976C96.2726 27.632 97.1793 26.576 98.3313 25.808C99.4833 25.04 100.806 24.656 102.299 24.656C103.067 24.656 103.803 24.7733 104.507 25.008C105.211 25.2427 105.851 25.5627 106.427 25.968C107.003 26.3733 107.473 26.8427 107.835 27.376C108.198 27.888 108.411 28.4213 108.475 28.976L107.259 29.264V18.32H112.411V42H107.643L107.355 38.128L108.379 38.288C108.315 38.8213 108.102 39.3333 107.739 39.824C107.398 40.3147 106.95 40.752 106.395 41.136C105.841 41.4987 105.201 41.7867 104.475 42C103.771 42.2347 103.025 42.352 102.235 42.352ZM103.547 38.096C104.337 38.096 105.019 37.904 105.595 37.52C106.171 37.136 106.609 36.6027 106.907 35.92C107.227 35.2373 107.387 34.4373 107.387 33.52C107.387 32.5813 107.227 31.7707 106.907 31.088C106.609 30.4053 106.171 29.872 105.595 29.488C105.019 29.104 104.337 28.912 103.547 28.912C102.758 28.912 102.075 29.104 101.499 29.488C100.945 29.872 100.507 30.4053 100.187 31.088C99.8673 31.7707 99.7073 32.5813 99.7073 33.52C99.7073 34.4373 99.8673 35.2373 100.187 35.92C100.507 36.6027 100.945 37.136 101.499 37.52C102.075 37.904 102.758 38.096 103.547 38.096Z" fill="#C4DB6E"/>
<path d="M140.639 21.8757C140.416 21.7053 140.215 21.5004 140.036 21.2756C138.894 22.0697 137.348 22.1278 136.196 21.5186C135.606 22.1676 134.803 22.6009 133.869 22.5212C133.629 22.5012 133.404 22.4396 133.196 22.3489L136.565 46.5036C137.007 46.5725 137.46 46.6124 137.921 46.6197V46.6469C138.35 46.6469 138.774 46.616 139.189 46.5617L143.211 22.2909C142.384 22.6046 141.4 22.4632 140.637 21.8776L140.639 21.8757Z" fill="#C4DB6E"/>
<path d="M138.029 0.0199432V0C129.175 0 122 7.05986 122 15.7714C122 19.4318 125.094 24.2254 126.896 28.8141C128.26 32.2933 128.451 35.9646 128.451 37.1504C128.451 41.5832 131.543 45.298 135.721 46.3314L132.26 21.5186C132.006 21.0944 131.908 20.5813 132.028 20.0627C132.162 19.4808 133.069 19.7292 132.936 20.3093C132.892 20.5033 132.896 20.6683 132.929 20.8152L132.984 20.8079L133.017 21.0472C133.377 21.66 134.492 21.6854 135.111 21.2648C135.234 21.1814 135.345 21.0798 135.453 20.9711C134.984 20.4979 134.667 19.8579 134.613 19.0529C134.543 18.0159 135.324 16.5183 136.609 17.0695C137.853 17.6043 137.329 19.4137 136.952 20.3238C136.889 20.4743 136.817 20.623 136.736 20.768C137.167 21.0001 137.67 21.1034 138.182 21.0454C138.695 20.9892 139.159 20.7861 139.546 20.4852C139.085 19.5352 138.921 18.3966 139.095 17.4357C139.306 16.2609 140.722 15.9925 141.37 17.0151C142.056 18.0956 141.47 19.74 140.722 20.6465C140.795 20.7444 140.876 20.8387 140.967 20.9276C141.671 21.6219 142.913 21.8449 143.539 20.9203C143.874 20.4254 144.689 20.8913 144.352 21.3881C144.287 21.4823 144.219 21.5675 144.145 21.6491L140.055 46.3985L140.007 46.4185C144.322 45.4811 147.549 41.6974 147.549 37.1739C147.549 35.9882 147.742 32.3169 149.104 28.8341C150.906 24.2472 154 19.4554 154 15.7913C154 7.10155 146.858 0.0525774 138.029 0.0199432Z" fill="#C4DB6E"/>
<path d="M136.111 18.1029C135.7 18.0032 135.649 18.1917 135.571 18.5489C135.472 19.0112 135.612 19.5207 135.846 19.9213C135.896 20.0084 135.955 20.0863 136.014 20.1643C136.259 19.6748 136.406 19.1272 136.437 18.6395C136.459 18.2951 136.493 18.1972 136.109 18.1029H136.111Z" fill="#C4DB6E"/>
<path d="M140.703 18.0086C140.685 17.7493 140.364 16.9571 140.038 17.4955C139.953 17.6351 140.001 17.9288 140.005 18.0811C140.018 18.6105 140.08 19.1726 140.246 19.6965C140.337 19.5479 140.419 19.3956 140.484 19.2324C140.633 18.8535 140.731 18.4165 140.701 18.0086H140.703Z" fill="#C4DB6E"/>
<path d="M138.151 46.161C137.005 44.7867 135.347 43.4306 133.581 43.0608C131.816 42.6891 129.857 43.0735 128.494 44.2392C126.911 45.5935 126.192 47.8671 124.322 48.8026C126.518 49.8976 130.089 50.0137 132.511 49.5822C134.932 49.1488 138.164 46.3623 138.149 46.161H138.151Z" fill="#61A46E"/>
<path d="M138.282 46.0323C137.49 45.0895 136.555 44.2356 135.477 43.6174C134.399 42.9991 133.275 42.709 132.068 42.7453C130.911 42.7797 129.747 43.1152 128.796 43.7769C127.909 44.3933 127.283 45.2672 126.675 46.1338C126 47.0929 125.308 48.0937 124.228 48.6466C124.11 48.7065 124.106 48.9005 124.228 48.9603C125.271 49.4734 126.424 49.729 127.576 49.8722C128.822 50.0263 130.089 50.039 131.339 49.9212C131.86 49.8722 132.395 49.8124 132.903 49.6819C133.412 49.5513 133.883 49.3555 134.344 49.1325C135.28 48.6793 136.155 48.1009 136.979 47.4718C137.316 47.2144 137.648 46.9479 137.956 46.6596C138.087 46.5381 138.326 46.3586 138.333 46.1628C138.343 45.9289 137.974 45.9289 137.965 46.1628C137.969 46.083 138.005 46.1048 137.961 46.1302C137.965 46.1284 137.943 46.1519 137.917 46.1828C137.84 46.268 137.755 46.3477 137.67 46.4257C137.412 46.665 137.138 46.8898 136.859 47.1056C136.1 47.6966 135.289 48.2369 134.433 48.6811C133.987 48.9113 133.526 49.118 133.045 49.2649C132.564 49.4117 132.067 49.4806 131.569 49.535C130.423 49.6601 129.262 49.6692 128.114 49.5658C126.852 49.4534 125.555 49.2087 124.414 48.6466V48.9603C126.273 48.0085 126.975 45.909 128.431 44.5402C130.123 42.9484 132.831 42.6945 134.886 43.7153C136.109 44.3226 137.15 45.2563 138.018 46.2897C138.169 46.4692 138.429 46.2118 138.278 46.0341L138.282 46.0323Z" fill="#61A46E"/>
</svg>
